<?xml version="1.0" encoding="UTF-8" standalone="no"?>
<svg
   xmlns:dc="http://purl.org/dc/elements/1.1/"
   xmlns:cc="http://creativecommons.org/ns#"
   xmlns:rdf="http://www.w3.org/1999/02/22-rdf-syntax-ns#"
   xmlns:svg="http://www.w3.org/2000/svg"
   xmlns="http://www.w3.org/2000/svg"
   id="svg5526"
   version="1.1"
   viewBox="0 0 30.750198 7.1034932"
   height="7.1034932mm"
   width="30.750198mm">
  <defs
     id="defs5520" />
  <metadata
     id="metadata5523">
    <rdf:RDF>
      <cc:Work
         rdf:about="">
        <dc:format>image/svg+xml</dc:format>
        <dc:type
           rdf:resource="http://purl.org/dc/dcmitype/StillImage" />
        <dc:title></dc:title>
      </cc:Work>
    </rdf:RDF>
  </metadata>
  <g
     transform="translate(-26.359918,-72.14547)"
     id="layer1">
    <g
       transform="matrix(1.942852,0,0,1.942852,-55.192323,-67.008933)"
       id="g6127">
      <g
         id="g6106"
         transform="translate(-0.300027,-0.399798)">
        <path
           d="m 44.050952,73.376438 -1.178222,0.84336 h -0.545703 l 1.178222,-0.84336 -1.178222,-0.843359 h 0.545703 z"
           style="font-style:normal;font-variant:normal;font-weight:normal;font-stretch:normal;font-size:4.23333311px;line-height:125%;font-family:Uroob;-inkscape-font-specification:Uroob;letter-spacing:0px;word-spacing:0px;fill:#008000;fill-opacity:1;stroke:none;stroke-width:0.26458332px;stroke-linecap:butt;stroke-linejoin:miter;stroke-opacity:1"
           id="path6075" />
        <path
           d="m 46.039461,73.376438 -1.178222,0.84336 h -0.545703 l 1.178222,-0.84336 -1.178222,-0.843359 h 0.545703 z"
           style="font-style:normal;font-variant:normal;font-weight:normal;font-stretch:normal;font-size:4.23333311px;line-height:125%;font-family:Uroob;-inkscape-font-specification:Uroob;letter-spacing:0px;word-spacing:0px;fill:#008000;fill-opacity:1;stroke:none;stroke-width:0.26458332px;stroke-linecap:butt;stroke-linejoin:miter;stroke-opacity:1"
           id="path6077" />
        <path
           d="m 48.02797,73.376438 -1.178222,0.84336 h -0.545703 l 1.178222,-0.84336 -1.178222,-0.843359 h 0.545703 z"
           style="font-style:normal;font-variant:normal;font-weight:normal;font-stretch:normal;font-size:4.23333311px;line-height:125%;font-family:Uroob;-inkscape-font-specification:Uroob;letter-spacing:0px;word-spacing:0px;fill:#008000;fill-opacity:1;stroke:none;stroke-width:0.26458332px;stroke-linecap:butt;stroke-linejoin:miter;stroke-opacity:1"
           id="path6079" />
      </g>
      <g
         id="g6114">
        <path
           d="m 49.410832,72.452464 q 0.09302,-0.144694 0.245979,-0.144694 h 0.392741 q 0.179834,0 0.310059,0.121956 0.130224,0.121957 0.130224,0.303858 v 1.5875 h -0.353466 v -1.519287 q 0,-0.07855 -0.04548,-0.132292 -0.04341,-0.05581 -0.128157,-0.05581 h -0.28112 q -0.103353,0 -0.134359,0.142627 -0.0083,0.03721 -0.0083,0.06821 v 1.49655 h -0.355534 v -1.55236 q 0,-0.103353 -0.109554,-0.144694 -0.03101,-0.0124 -0.06201,-0.01034 h -0.301791 q -0.124023,0 -0.124023,0.291455 v 1.415935 H 48.230542 V 72.30777 h 0.31626 v 0.124023 q 0.09095,-0.124023 0.221175,-0.124023 h 0.37207 q 0.173633,0 0.270785,0.144694 z"
           style="font-style:normal;font-variant:normal;font-weight:normal;font-stretch:normal;font-size:4.23333311px;line-height:125%;font-family:Uroob;-inkscape-font-specification:Uroob;letter-spacing:0px;word-spacing:0px;fill:#808080;fill-opacity:1;stroke:none;stroke-width:0.26458332px;stroke-linecap:butt;stroke-linejoin:miter;stroke-opacity:1"
           id="path6081" />
        <path
           d="m 51.023137,72.409056 q 0.134358,-0.09715 0.299723,-0.09715 h 0.144694 q 0.262516,0 0.419612,0.150895 0.157097,0.150895 0.157097,0.417546 v 0.826823 q 0,0.434082 -0.291455,0.566373 -0.101286,0.04548 -0.243913,0.04548 h -0.227376 q -0.134359,0 -0.227377,-0.101286 v 1.010791 h -0.3576 l 0.0021,-2.916618 h 0.324528 z m 0.667659,1.27124 v -0.750342 q 0,-0.16123 -0.03514,-0.214974 -0.06408,-0.09922 -0.212907,-0.09922 h -0.177767 q -0.06408,0 -0.138493,0.04548 -0.07235,0.04547 -0.07235,0.107487 v 1.039729 q 0,0.06201 0.07648,0.134359 0.07648,0.07028 0.134358,0.07028 h 0.177767 q 0.204639,0 0.237712,-0.204639 0.0083,-0.05994 0.01033,-0.128157 z"
           style="font-style:normal;font-variant:normal;font-weight:normal;font-stretch:normal;font-size:4.23333311px;line-height:125%;font-family:Uroob;-inkscape-font-specification:Uroob;letter-spacing:0px;word-spacing:0px;fill:#808080;fill-opacity:1;stroke:none;stroke-width:0.26458332px;stroke-linecap:butt;stroke-linejoin:miter;stroke-opacity:1"
           id="path6083" />
        <path
           d="m 53.640031,74.323151 h -0.892969 q -0.192236,0 -0.347266,-0.121957 Q 52.2427,74.079238 52.2427,73.891136 v -1.779737 q 0,-0.188102 0.157096,-0.312125 0.157097,-0.124024 0.347266,-0.124024 h 0.892969 v 0.326595 h -0.868164 q -0.08062,0 -0.117823,0.05168 -0.03721,0.05168 -0.03721,0.12609 v 0.638721 h 0.938444 v 0.318327 h -0.938444 v 0.686263 q 0,0.07441 0.03721,0.12609 0.03721,0.05168 0.117823,0.05168 h 0.868164 z"
           style="font-style:normal;font-variant:normal;font-weight:normal;font-stretch:normal;font-size:4.23333311px;line-height:125%;font-family:Uroob;-inkscape-font-specification:Uroob;letter-spacing:0px;word-spacing:0px;fill:#cccccc;fill-opacity:1;stroke:none;stroke-width:0.26458332px;stroke-linecap:butt;stroke-linejoin:miter;stroke-opacity:1"
           id="path6085" />
        <path
           d="m 55.355688,73.909739 q 0,0.183968 -0.111621,0.299723 -0.111621,0.113689 -0.297656,0.113689 h -1.103809 v -2.641699 h 1.021126 q 0.202572,0 0.347266,0.134358 0.144694,0.134359 0.144694,0.336931 z m -0.374137,-0.08888 v -1.599903 q 0,-0.138492 -0.107487,-0.200504 -0.03307,-0.02067 -0.07648,-0.0186 h -0.578776 v 1.996778 h 0.640788 q 0.10542,-0.0021 0.117822,-0.113688 0.0041,-0.03307 0.0041,-0.06408 z"
           style="font-style:normal;font-variant:normal;font-weight:normal;font-stretch:normal;font-size:4.23333311px;line-height:125%;font-family:Uroob;-inkscape-font-specification:Uroob;letter-spacing:0px;word-spacing:0px;fill:#cccccc;fill-opacity:1;stroke:none;stroke-width:0.26458332px;stroke-linecap:butt;stroke-linejoin:miter;stroke-opacity:1"
           id="path6087" />
        <path
           d="m 55.940665,74.323151 h -0.380338 v -2.538347 q 0,-0.04134 0.03101,-0.07235 0.03101,-0.03101 0.07235,-0.03101 h 0.173632 q 0.04134,0 0.07235,0.03101 0.03101,0.03101 0.03101,0.07235 z"
           style="font-style:normal;font-variant:normal;font-weight:normal;font-stretch:normal;font-size:4.23333311px;line-height:125%;font-family:Uroob;-inkscape-font-specification:Uroob;letter-spacing:0px;word-spacing:0px;fill:#cccccc;fill-opacity:1;stroke:none;stroke-width:0.26458332px;stroke-linecap:butt;stroke-linejoin:miter;stroke-opacity:1"
           id="path6089" />
        <path
           d="m 57.645988,71.681452 q 0.09302,0 0.10542,0.103352 v 0.237712 h -0.611849 v 2.300635 h -0.378272 v -2.300635 h -0.611848 v -0.237712 q 0,-0.04547 0.03101,-0.07441 0.03307,-0.02894 0.07648,-0.02894 z"
           style="font-style:normal;font-variant:normal;font-weight:normal;font-stretch:normal;font-size:4.23333311px;line-height:125%;font-family:Uroob;-inkscape-font-specification:Uroob;letter-spacing:0px;word-spacing:0px;fill:#cccccc;fill-opacity:1;stroke:none;stroke-width:0.26458332px;stroke-linecap:butt;stroke-linejoin:miter;stroke-opacity:1"
           id="path6091" />
      </g>
    </g>
  </g>
</svg>
